<svg width="32" height="32" viewBox="0 0 32 32" fill="none" xmlns="http://www.w3.org/2000/svg">
<path d="M26.8673 27.7804H5.13561C3.83505 27.7787 2.58825 27.2612 1.6687 26.3415C0.749148 25.4218 0.23192 24.1749 0.230469 22.8743V9.13171C0.231921 7.83123 0.749177 6.58443 1.66876 5.66485C2.58833 4.74527 3.83513 4.22801 5.13561 4.22656H26.8673C28.1678 4.22801 29.4147 4.74524 30.3344 5.66479C31.2542 6.58435 31.7716 7.83114 31.7733 9.13171V22.8743C31.7719 24.1751 31.2545 25.4221 30.3348 26.3418C29.415 27.2616 28.168 27.7789 26.8673 27.7804ZM5.13561 6.51228C4.44112 6.513 3.77528 6.78921 3.2842 7.28029C2.79312 7.77137 2.51691 8.43721 2.51618 9.13171V22.8743C2.51667 23.569 2.79277 24.2351 3.28388 24.7263C3.77498 25.2176 4.44096 25.494 5.13561 25.4947H26.8673C27.562 25.494 28.2281 25.2176 28.7193 24.7264C29.2106 24.2351 29.4869 23.5691 29.4876 22.8743V9.13171C29.4866 8.43713 29.2102 7.77129 28.719 7.28024C28.2278 6.78918 27.5618 6.513 26.8673 6.51228H5.13561Z" fill="#62D0B6"/>
<path d="M15.9876 19.0744C15.0287 19.0838 14.0946 18.7698 13.3362 18.1829L1.114 8.44306C0.876971 8.25404 0.724737 7.97861 0.690788 7.67735C0.656838 7.37609 0.743954 7.07368 0.93297 6.83665C1.12199 6.59963 1.39742 6.44739 1.69868 6.41344C1.99994 6.37949 2.30234 6.46661 2.53937 6.65563L14.7579 16.3955C15.1188 16.6515 15.5507 16.7885 15.9932 16.7874C16.4357 16.7862 16.8668 16.647 17.2265 16.3891L29.2941 6.6602C29.5299 6.46997 29.8317 6.38121 30.1329 6.41344C30.4342 6.44568 30.7103 6.59627 30.9005 6.83208C31.0907 7.0679 31.1795 7.36962 31.1473 7.67088C31.115 7.97214 30.9644 8.24826 30.7286 8.43848L18.6646 18.1674C17.901 18.7646 16.957 19.0844 15.9876 19.0744Z" fill="#62D0B6"/>
</svg>
